<svg width="133" height="15" viewBox="0 0 133 15" fill="none" xmlns="http://www.w3.org/2000/svg">
<path d="M7.084 0.742V1.778H4.424V10.5H3.15V1.778H0.476V0.742H7.084ZM9.92622 4.074C10.1502 3.63533 10.4676 3.29467 10.8782 3.052C11.2982 2.80933 11.8069 2.688 12.4042 2.688V4.004H12.0682C10.6402 4.004 9.92622 4.77867 9.92622 6.328V10.5H8.65222V2.828H9.92622V4.074ZM13.3989 6.636C13.3989 5.852 13.5575 5.166 13.8749 4.578C14.1922 3.98067 14.6262 3.51867 15.1769 3.192C15.7369 2.86533 16.3575 2.702 17.0389 2.702C17.7109 2.702 18.2942 2.84667 18.7889 3.136C19.2835 3.42533 19.6522 3.78933 19.8949 4.228V2.828H21.1829V10.5H19.8949V9.072C19.6429 9.52 19.2649 9.89333 18.7609 10.192C18.2662 10.4813 17.6875 10.626 17.0249 10.626C16.3435 10.626 15.7275 10.458 15.1769 10.122C14.6262 9.786 14.1922 9.31467 13.8749 8.708C13.5575 8.10133 13.3989 7.41067 13.3989 6.636ZM19.8949 6.65C19.8949 6.07133 19.7782 5.56733 19.5449 5.138C19.3115 4.70867 18.9942 4.382 18.5929 4.158C18.2009 3.92467 17.7669 3.808 17.2909 3.808C16.8149 3.808 16.3809 3.92 15.9889 4.144C15.5969 4.368 15.2842 4.69467 15.0509 5.124C14.8175 5.55333 14.7009 6.05733 14.7009 6.636C14.7009 7.224 14.8175 7.73733 15.0509 8.176C15.2842 8.60533 15.5969 8.93667 15.9889 9.17C16.3809 9.394 16.8149 9.506 17.2909 9.506C17.7669 9.506 18.2009 9.394 18.5929 9.17C18.9942 8.93667 19.3115 8.60533 19.5449 8.176C19.7782 7.73733 19.8949 7.22867 19.8949 6.65ZM26.1918 9.324L28.5718 2.828H29.9298L26.9198 10.5H25.4358L22.4258 2.828H23.7978L26.1918 9.324ZM38.1835 6.37C38.1835 6.61267 38.1695 6.86933 38.1415 7.14H32.0095C32.0561 7.896 32.3128 8.48867 32.7795 8.918C33.2555 9.338 33.8295 9.548 34.5015 9.548C35.0521 9.548 35.5095 9.422 35.8735 9.17C36.2468 8.90867 36.5081 8.56333 36.6575 8.134H38.0295C37.8241 8.87133 37.4135 9.47333 36.7975 9.94C36.1815 10.3973 35.4161 10.626 34.5015 10.626C33.7735 10.626 33.1201 10.4627 32.5415 10.136C31.9721 9.80933 31.5241 9.34733 31.1975 8.75C30.8708 8.14333 30.7075 7.44333 30.7075 6.65C30.7075 5.85667 30.8661 5.16133 31.1835 4.564C31.5008 3.96667 31.9441 3.50933 32.5135 3.192C33.0921 2.86533 33.7548 2.702 34.5015 2.702C35.2295 2.702 35.8735 2.86067 36.4335 3.178C36.9935 3.49533 37.4228 3.934 37.7215 4.494C38.0295 5.04467 38.1835 5.67 38.1835 6.37ZM36.8675 6.104C36.8675 5.61867 36.7601 5.20333 36.5455 4.858C36.3308 4.50333 36.0368 4.23733 35.6635 4.06C35.2995 3.87333 34.8935 3.78 34.4455 3.78C33.8015 3.78 33.2508 3.98533 32.7935 4.396C32.3455 4.80667 32.0888 5.376 32.0235 6.104H36.8675ZM41.1391 0.14V10.5H39.8651V0.14H41.1391ZM46.4744 2.702C47.1371 2.702 47.7158 2.84667 48.2104 3.136C48.7144 3.42533 49.0878 3.78933 49.3304 4.228V2.828H50.6184V10.668C50.6184 11.368 50.4691 11.9887 50.1704 12.53C49.8718 13.0807 49.4424 13.51 48.8824 13.818C48.3318 14.126 47.6878 14.28 46.9504 14.28C45.9424 14.28 45.1024 14.042 44.4304 13.566C43.7584 13.09 43.3618 12.4413 43.2404 11.62H44.5004C44.6404 12.0867 44.9298 12.46 45.3684 12.74C45.8071 13.0293 46.3344 13.174 46.9504 13.174C47.6504 13.174 48.2198 12.9547 48.6584 12.516C49.1064 12.0773 49.3304 11.4613 49.3304 10.668V9.058C49.0784 9.506 48.7051 9.87933 48.2104 10.178C47.7158 10.4767 47.1371 10.626 46.4744 10.626C45.7931 10.626 45.1724 10.458 44.6124 10.122C44.0618 9.786 43.6278 9.31467 43.3104 8.708C42.9931 8.10133 42.8344 7.41067 42.8344 6.636C42.8344 5.852 42.9931 5.166 43.3104 4.578C43.6278 3.98067 44.0618 3.51867 44.6124 3.192C45.1724 2.86533 45.7931 2.702 46.4744 2.702ZM49.3304 6.65C49.3304 6.07133 49.2138 5.56733 48.9804 5.138C48.7471 4.70867 48.4298 4.382 48.0284 4.158C47.6364 3.92467 47.2024 3.808 46.7264 3.808C46.2504 3.808 45.8164 3.92 45.4244 4.144C45.0324 4.368 44.7198 4.69467 44.4864 5.124C44.2531 5.55333 44.1364 6.05733 44.1364 6.636C44.1364 7.224 44.2531 7.73733 44.4864 8.176C44.7198 8.60533 45.0324 8.93667 45.4244 9.17C45.8164 9.394 46.2504 9.506 46.7264 9.506C47.2024 9.506 47.6364 9.394 48.0284 9.17C48.4298 8.93667 48.7471 8.60533 48.9804 8.176C49.2138 7.73733 49.3304 7.22867 49.3304 6.65ZM54.0454 4.074C54.2694 3.63533 54.5867 3.29467 54.9974 3.052C55.4174 2.80933 55.926 2.688 56.5234 2.688V4.004H56.1874C54.7594 4.004 54.0454 4.77867 54.0454 6.328V10.5H52.7714V2.828H54.0454V4.074ZM57.518 6.636C57.518 5.852 57.6767 5.166 57.994 4.578C58.3113 3.98067 58.7453 3.51867 59.296 3.192C59.856 2.86533 60.4767 2.702 61.158 2.702C61.83 2.702 62.4133 2.84667 62.908 3.136C63.4027 3.42533 63.7713 3.78933 64.014 4.228V2.828H65.302V10.5H64.014V9.072C63.762 9.52 63.384 9.89333 62.88 10.192C62.3853 10.4813 61.8067 10.626 61.144 10.626C60.4627 10.626 59.8467 10.458 59.296 10.122C58.7453 9.786 58.3113 9.31467 57.994 8.708C57.6767 8.10133 57.518 7.41067 57.518 6.636ZM64.014 6.65C64.014 6.07133 63.8973 5.56733 63.664 5.138C63.4307 4.70867 63.1133 4.382 62.712 4.158C62.32 3.92467 61.886 3.808 61.41 3.808C60.934 3.808 60.5 3.92 60.108 4.144C59.716 4.368 59.4033 4.69467 59.17 5.124C58.9367 5.55333 58.82 6.05733 58.82 6.636C58.82 7.224 58.9367 7.73733 59.17 8.176C59.4033 8.60533 59.716 8.93667 60.108 9.17C60.5 9.394 60.934 9.506 61.41 9.506C61.886 9.506 62.32 9.394 62.712 9.17C63.1133 8.93667 63.4307 8.60533 63.664 8.176C63.8973 7.73733 64.014 7.22867 64.014 6.65ZM76.681 2.688C77.2783 2.688 77.8103 2.814 78.277 3.066C78.7436 3.30867 79.1123 3.67733 79.383 4.172C79.6536 4.66667 79.789 5.26867 79.789 5.978V10.5H78.529V6.16C78.529 5.39467 78.3376 4.81133 77.955 4.41C77.5816 3.99933 77.073 3.794 76.429 3.794C75.7663 3.794 75.239 4.00867 74.847 4.438C74.455 4.858 74.259 5.46933 74.259 6.272V10.5H72.999V6.16C72.999 5.39467 72.8076 4.81133 72.425 4.41C72.0516 3.99933 71.543 3.794 70.899 3.794C70.2363 3.794 69.709 4.00867 69.317 4.438C68.925 4.858 68.729 5.46933 68.729 6.272V10.5H67.455V2.828H68.729V3.934C68.981 3.53267 69.317 3.22467 69.737 3.01C70.1663 2.79533 70.6376 2.688 71.151 2.688C71.795 2.688 72.3643 2.83267 72.859 3.122C73.3536 3.41133 73.7223 3.836 73.965 4.396C74.1796 3.85467 74.5343 3.43467 75.029 3.136C75.5236 2.83733 76.0743 2.688 76.681 2.688ZM90.0912 0.643999C91.0339 0.643999 91.8739 0.858666 92.6112 1.288C93.3485 1.708 93.9179 2.296 94.3192 3.052C94.7299 3.79867 94.9352 4.65267 94.9352 5.614C94.9352 6.57533 94.7299 7.434 94.3192 8.19C93.9179 8.93667 93.3485 9.52467 92.6112 9.954C91.8739 10.374 91.0339 10.584 90.0912 10.584C89.1392 10.584 88.2945 10.374 87.5572 9.954C86.8199 9.52467 86.2459 8.93667 85.8352 8.19C85.4245 7.434 85.2192 6.57533 85.2192 5.614C85.2192 4.65267 85.4245 3.79867 85.8352 3.052C86.2459 2.296 86.8199 1.708 87.5572 1.288C88.2945 0.858666 89.1392 0.643999 90.0912 0.643999ZM90.0912 1.204C89.2232 1.204 88.4672 1.39067 87.8232 1.764C87.1792 2.128 86.6845 2.64133 86.3392 3.304C85.9939 3.96667 85.8212 4.73667 85.8212 5.614C85.8212 6.482 85.9939 7.252 86.3392 7.924C86.6845 8.58667 87.1792 9.10467 87.8232 9.478C88.4672 9.85133 89.2232 10.038 90.0912 10.038C90.9499 10.038 91.6965 9.85133 92.3312 9.478C92.9752 9.10467 93.4699 8.58667 93.8152 7.924C94.1605 7.252 94.3332 6.482 94.3332 5.614C94.3332 4.73667 94.1605 3.96667 93.8152 3.304C93.4699 2.64133 92.9752 2.128 92.3312 1.764C91.6965 1.39067 90.9499 1.204 90.0912 1.204ZM90.0632 2.366C89.5032 2.366 88.9899 2.49667 88.5232 2.758C88.0659 3.01933 87.7019 3.39733 87.4312 3.892C87.1605 4.37733 87.0252 4.94667 87.0252 5.6C87.0252 6.25333 87.1605 6.82733 87.4312 7.322C87.7019 7.80733 88.0659 8.18533 88.5232 8.456C88.9899 8.71733 89.5032 8.848 90.0632 8.848C90.7632 8.848 91.3699 8.66133 91.8832 8.288C92.3965 7.90533 92.7465 7.39667 92.9332 6.762H91.7572C91.4772 7.53667 90.9125 7.924 90.0632 7.924C89.5032 7.924 89.0459 7.72333 88.6912 7.322C88.3365 6.92067 88.1592 6.35133 88.1592 5.614C88.1592 4.86733 88.3365 4.29333 88.6912 3.892C89.0459 3.49067 89.5032 3.29 90.0632 3.29C90.4739 3.29 90.8285 3.39267 91.1272 3.598C91.4259 3.794 91.6359 4.07867 91.7572 4.452H92.9332C92.7559 3.78933 92.4105 3.276 91.8972 2.912C91.3839 2.548 90.7725 2.366 90.0632 2.366ZM100.068 9.478C101.253 8.526 102.182 7.74667 102.854 7.14C103.526 6.524 104.09 5.88467 104.548 5.222C105.014 4.55 105.248 3.892 105.248 3.248C105.248 2.64133 105.098 2.16533 104.8 1.82C104.51 1.46533 104.039 1.288 103.386 1.288C102.751 1.288 102.256 1.48867 101.902 1.89C101.556 2.282 101.37 2.80933 101.342 3.472H100.11C100.147 2.42667 100.464 1.61933 101.062 1.05C101.659 0.480666 102.429 0.195999 103.372 0.195999C104.333 0.195999 105.094 0.461999 105.654 0.994C106.223 1.526 106.508 2.25867 106.508 3.192C106.508 3.96667 106.274 4.72267 105.808 5.46C105.35 6.188 104.828 6.832 104.24 7.392C103.652 7.94267 102.9 8.58667 101.986 9.324H106.802V10.388H100.068V9.478ZM108.274 5.334C108.274 3.72867 108.536 2.478 109.058 1.582C109.581 0.676666 110.496 0.224 111.802 0.224C113.1 0.224 114.01 0.676666 114.532 1.582C115.055 2.478 115.316 3.72867 115.316 5.334C115.316 6.96733 115.055 8.23667 114.532 9.142C114.01 10.0473 113.1 10.5 111.802 10.5C110.496 10.5 109.581 10.0473 109.058 9.142C108.536 8.23667 108.274 6.96733 108.274 5.334ZM114.056 5.334C114.056 4.522 114 3.836 113.888 3.276C113.786 2.70667 113.566 2.24933 113.23 1.904C112.904 1.55867 112.428 1.386 111.802 1.386C111.168 1.386 110.682 1.55867 110.346 1.904C110.02 2.24933 109.8 2.70667 109.688 3.276C109.586 3.836 109.534 4.522 109.534 5.334C109.534 6.174 109.586 6.87867 109.688 7.448C109.8 8.01733 110.02 8.47467 110.346 8.82C110.682 9.16533 111.168 9.338 111.802 9.338C112.428 9.338 112.904 9.16533 113.23 8.82C113.566 8.47467 113.786 8.01733 113.888 7.448C114 6.87867 114.056 6.174 114.056 5.334ZM116.911 9.478C118.097 8.526 119.025 7.74667 119.697 7.14C120.369 6.524 120.934 5.88467 121.391 5.222C121.858 4.55 122.091 3.892 122.091 3.248C122.091 2.64133 121.942 2.16533 121.643 1.82C121.354 1.46533 120.883 1.288 120.229 1.288C119.595 1.288 119.1 1.48867 118.745 1.89C118.4 2.282 118.213 2.80933 118.185 3.472H116.953C116.991 2.42667 117.308 1.61933 117.905 1.05C118.503 0.480666 119.273 0.195999 120.215 0.195999C121.177 0.195999 121.937 0.461999 122.497 0.994C123.067 1.526 123.351 2.25867 123.351 3.192C123.351 3.96667 123.118 4.72267 122.651 5.46C122.194 6.188 121.671 6.832 121.083 7.392C120.495 7.94267 119.744 8.58667 118.829 9.324H123.645V10.388H116.911V9.478ZM124.81 8.246V7.28L129.724 0.476H131.25V7.14H132.65V8.246H131.25V10.5H129.99V8.246H124.81ZM130.046 1.806L126.28 7.14H130.046V1.806Z" fill="#6C6C6C"/>
</svg>
